PathFileType	4	(X/Y/Z)	/Users/visionmauri/Downloads/Videos/OAW08-top_Sports2D/OAW08-top_Sports2D_m_person00.trc
DataRate	CameraRate	NumFrames	NumMarkers	Units	OrigDataRate	OrigDataStartFrame	OrigNumFrames
30.0	30.0	8	22	m	30.0	536	2144
Frame#	Time	Hip			RHip			RKnee			RAnkle			RBigToe			RSmallToe			RHeel			LHip			LKnee			LAnkle			LBigToe			LSmallToe			LHeel			Neck			Head			Nose			RShoulder			RElbow			RWrist			LShoulder			LElbow			LWrist			
		X1	Y1	Z1	X2	Y2	Z2	X3	Y3	Z3	X4	Y4	Z4	X5	Y5	Z5	X6	Y6	Z6	X7	Y7	Z7	X8	Y8	Z8	X9	Y9	Z9	X10	Y10	Z10	X11	Y11	Z11	X12	Y12	Z12	X13	Y13	Z13	X14	Y14	Z14	X15	Y15	Z15	X16	Y16	Z16	X17	Y17	Z17	X18	Y18	Z18	X19	Y19	Z19	X20	Y20	Z20	X21	Y21	Z21	X22	Y22	Z22
536	17.87500388862965	2.0482602423596092	-0.2116949250311561	0.0301	2.1458711361659084	-0.14798372782245664	0.0301	2.4522926302190484	-0.4745697201503987	0.129	2.7335906529949043	-0.8082879196210379	0.023	2.7243124630316005	-0.7399239595838429	0.2179	2.803607860191785	-0.7434261330373847	0.1804	2.7932213092245397	-0.8984445058567571	-0.0119	1.96320570443771	-0.30643276049617657	0.0301	2.2728401317567655	-0.6478134604251388	0.129	2.5667544705569942	-1.0552725665844305	0.023	2.6326336274331363	-1.0906981891651746	0.2179	2.5637897433840124	-1.1649801921497256	0.1804	2.62916081859041	-1.1447567409797725	-0.0119	1.5992884157802192	0.3667874447539951	0.0008	1.4037617492890968	0.6012937805751176	0.0655	1.5399998682766087	0.4703524806767412	0.1076	1.8600615301937264	0.41121317928175793	-0.01275	2.168323516858758	0.17282151582913702	0.0702	2.433080158648983	-0.027139000928029844	0.1076	1.4868435142786658	0.13590489930600222	-0.01275	1.6461785108193432	-0.2106571531622454	0.0702	1.8571905797896648	-0.36044019744494166	0.1076
537	17.908352776481568	2.044068831711204	-0.1900771702891199	0.0301	2.142143346083624	-0.12877752219822913	0.0301	2.4387464873542104	-0.4503727341409444	0.129	2.726142945142441	-0.7972347630726457	0.023	2.716708131966693	-0.7514764709063396	0.2179	2.799165522678796	-0.7439918748188649	0.1804	2.7870028824855906	-0.8905143432761397	-0.0119	1.9583460009798548	-0.2820737898491605	0.0301	2.25572736084529	-0.6035334610710992	0.129	2.5396607116179406	-0.9967859508515207	0.023	2.598773373196307	-1.031763531572996	0.2179	2.5314021046932615	-1.1004982778995636	0.1804	2.603853594445237	-1.0854991657841027	-0.0119	1.600224173390248	0.3800074074458449	0.0008	1.40641877262535	0.6120055823201912	0.0655	1.5406551528267296	0.4835662627391589	0.1076	1.8590612643916906	0.42838897261707143	-0.01275	2.16265231659079	0.1941796120462964	0.0702	2.417163637748823	0.0012103293332071765	0.1076	1.4869008484796191	0.15415957618580794	-0.01275	1.6436832050537133	-0.19169902316911677	0.0702	1.8490018266747323	-0.35694072086120304	0.1076
538	17.94170166433349	2.041411349760861	-0.169717853261565	0.0301	2.141743936858034	-0.11294330497124189	0.0301	2.425480841511892	-0.4294666399502818	0.129	2.71890838933233	-0.7841209381074467	0.023	2.710046271298749	-0.7601067760736453	0.2179	2.7951428416225754	-0.7420527586486569	0.1804	2.7799746464185904	-0.880465588471167	-0.0119	1.9579797303064044	-0.2639539469741088	0.0301	2.2435387149140755	-0.5661812808429607	0.129	2.5192344330724934	-0.9378759036429569	0.023	2.576316819956709	-0.9687402472275463	0.2179	2.5090111812051865	-1.0331555637649115	0.1804	2.585209681289532	-1.0256159468106107	-0.0119	1.5987025307857063	0.3958072840706364	0.0008	1.404936745789757	0.6241541050066255	0.0655	1.5391172863910318	0.4979633504812836	0.1076	1.8554191485426783	0.4442172184412088	-0.01275	2.157257242392402	0.2136808571448971	0.0702	2.3980614393117428	0.02818469027202364	0.1076	1.4865012056853129	0.17184037749974015	-0.01275	1.6421728039002113	-0.17196952188791673	0.0702	1.8365332496710824	-0.35164001207467455	0.1076
539	17.97505055218541	2.039500235671113	-0.14817591678926087	0.0301	2.141009538715283	-0.09486257521251812	0.0301	2.4186812795452286	-0.41620505829477633	0.129	2.713665376925124	-0.7741313058666497	0.023	2.708459462201588	-0.7631633591568338	0.2179	2.797510380109878	-0.7458804323566053	0.1804	2.776250989815835	-0.8718875222841201	-0.0119	1.959914273695836	-0.24591647066698724	0.0301	2.2382324664386513	-0.538810893939513	0.129	2.5088824919925363	-0.8875885268795709	0.023	2.5627692226240275	-0.9114743108222568	0.2179	2.4986019187463264	-0.9735415904414578	0.1804	2.573475899439392	-0.969879962988913	-0.0119	1.5965779845718562	0.4116206956765082	0.0008	1.4021994331232346	0.6344366070947484	0.0655	1.53712383890061	0.5106405665192695	0.1076	1.848971657664362	0.45923715530399045	-0.01275	2.1496800314552726	0.23453723163281043	0.0702	2.3773980764151723	0.05305630372551876	0.1076	1.4863277764754634	0.18919584169773526	-0.01275	1.6397195785538694	-0.1505708891434135	0.0702	1.8238403990380525	-0.3480082670358392	0.1076
540	18.008399440037334	2.0366820552272094	-0.12843407621175418	0.0301	2.1365974024189573	-0.07568335368876312	0.0301	2.4154015810891263	-0.4070782497987914	0.129	2.7117782429675317	-0.7693815250785769	0.023	2.70809439638248	-0.7640630760467816	0.2179	2.802821603456854	-0.752185215691188	0.1804	2.774824992756857	-0.865184133856226	-0.0119	1.9598393995547516	-0.22584861321509245	0.0301	2.237009222495117	-0.5171652621654619	0.129	2.50693595057552	-0.8498359757835434	0.023	2.5470890583333525	-0.8584651567064094	0.2179	2.491472462966621	-0.9192047836720286	0.1804	2.5684107367815936	-0.9249825484337909	-0.0119	1.5954595549954536	0.4243178385271898	0.0008	1.4030816770035233	0.6412100871580289	0.0655	1.537612605285181	0.5171498399529649	0.1076	1.8438130784103766	0.47335253101272107	-0.01275	2.1417596508204113	0.25575767071654537	0.0702	2.357743821377047	0.07472229932835663	0.1076	1.487826349363115	0.2040419234039334	-0.01275	1.636967842573012	-0.13126727182631143	0.0702	1.8129547357647553	-0.3475687183410254	0.1076
541	18.041748327889252	2.032610020187844	-0.1146493235898664	0.0301	2.129819556672463	-0.060727973976032995	0.0301	2.411389460309595	-0.39793898715059994	0.129	2.714689807396943	-0.7710605347209694	0.023	2.7067871328206783	-0.7623067040014342	0.2179	2.803773438830666	-0.7499923141868357	0.1804	2.7739759301987834	-0.8619917463088452	-0.0119	1.9574401897263054	-0.20764286549991193	0.0301	2.2341404617288516	-0.49629035446744024	0.129	2.5062630418944702	-0.8192554076028715	0.023	2.523202507011993	-0.8037649268445125	0.2179	2.47948319748529	-0.8654219026013055	0.1804	2.5666167419466213	-0.8908127778437183	-0.0119	1.5959498884138064	0.43249908238462725	0.0008	1.4070270641012326	0.6453515071313058	0.0655	1.5400216319707682	0.5173443408319899	0.1076	1.8421864513486723	0.4855422923233136	-0.01275	2.1356715809916835	0.2742026800837288	0.0702	2.34044343788334	0.09264050573177578	0.1076	1.4908355063357788	0.21382968785585718	-0.01275	1.6368973645749738	-0.11768313666443617	0.0702	1.8047419985760826	-0.3499917328938608	0.1076
542	18.075097215741174	2.028043633499628	-0.1051133578036322	0.0301	2.124273935144212	-0.050455460526831565	0.0301	2.406936678150714	-0.3892345770452222	0.129	2.718694954842193	-0.775142771347447	0.023	2.709981818824076	-0.7599613624125879	0.2179	2.8028052328213544	-0.7400276315516696	0.1804	2.7734679449856356	-0.8634443191894261	-0.0119	1.9543159663033294	-0.19360506483148376	0.0301	2.2261770623692905	-0.4754340868936414	0.129	2.4978560199728395	-0.7864175758166227	0.023	2.497919336705137	-0.7513619411196915	0.2179	2.46384913115741	-0.8172426656215849	0.1804	2.5597388021243064	-0.8577994255079557	-0.0119	1.5967446714290805	0.43660524840285203	0.0008	1.4102256447154753	0.6474563075124509	0.0655	1.5432295024628107	0.5149749102896692	0.1076	1.8407358087810708	0.49488333048706473	-0.01275	2.130222644414899	0.2890244887221435	0.0702	2.324100521145169	0.10887189091936708	0.1076	1.4933173422957662	0.21990208221827098	-0.01275	1.639018113927572	-0.10770231340736722	0.0702	1.7994452826200824	-0.35249964599715644	0.1076
543	18.108446103593096	2.0240175745477553	-0.09578851904332089	0.0301	2.1213612109307776	-0.04090809209908416	0.0301	2.402741669183922	-0.38169622177051876	0.129	2.718111902427271	-0.773912198465571	0.023	2.7192550969269367	-0.7680555569460307	0.2179	2.8061676306871597	-0.7349137238094762	0.1804	2.7713589396234863	-0.8657927651725467	-0.0119	1.9510072992385923	-0.18148324855886652	0.0301	2.213952322836161	-0.45467471526884085	0.129	2.47894043727784	-0.7474243992614338	0.023	2.47936129122836	-0.7115478377141089	0.2179	2.44846190870106	-0.7798296063757223	0.1804	2.542117237275908	-0.819256469857912	-0.0119	1.5964217475824474	0.4382497874251877	0.0008	1.4116022172332012	0.6475802068610745	0.0655	1.5469687937925363	0.5140277837407342	0.1076	1.836653929095615	0.5010203441947483	-0.01275	2.123902194654601	0.3007821082886484	0.0702	2.3072707874092315	0.1251622945257849	0.1076	1.4940973534543707	0.22560113701456855	-0.01275	1.6406799265577343	-0.09776664917884807	0.0702	1.7965057617617564	-0.35305026800143713	0.1076
